<svg width="100" height="100" viewBox="0 0 100 100" fill="none" xmlns="http://www.w3.org/2000/svg">
<path d="M1.5 24C1.5 11.5736 11.5736 1.5 24 1.5H98.5V98.5H24C11.5736 98.5 1.5 88.4264 1.5 76V24Z" fill="#10181E"/>
<g filter="url(#filter0_d_225_4896)">
<path fill-rule="evenodd" clip-rule="evenodd" d="M52.4042 50.0416L63.2229 60.8604L60.8187 63.2645L50 52.4458L39.1813 63.2645L36.7771 60.8604L47.5958 50.0416L36.7771 39.2229L39.1813 36.8187L50 47.6375L60.8187 36.8187L63.2229 39.2229L52.4042 50.0416Z" fill="#D2EAFF"/>
</g>
<path d="M1.5 24C1.5 11.5736 11.5736 1.5 24 1.5H98.5V98.5H24C11.5736 98.5 1.5 88.4264 1.5 76V24Z" stroke="url(#paint0_linear_225_4896)" stroke-width="3"/>
<defs>
<filter id="filter0_d_225_4896" x="28.7773" y="28.8188" width="42.4453" height="42.4458" filterUnits="userSpaceOnUse" color-interpolation-filters="sRGB">
<feFlood flood-opacity="0" result="BackgroundImageFix"/>
<feColorMatrix in="SourceAlpha" type="matrix" values="0 0 0 0 0 0 0 0 0 0 0 0 0 0 0 0 0 0 127 0" result="hardAlpha"/>
<feOffset/>
<feGaussianBlur stdDeviation="4"/>
<feComposite in2="hardAlpha" operator="out"/>
<feColorMatrix type="matrix" values="0 0 0 0 0.823529 0 0 0 0 0.917647 0 0 0 0 1 0 0 0 1 0"/>
<feBlend mode="normal" in2="BackgroundImageFix" result="effect1_dropShadow_225_4896"/>
<feBlend mode="normal" in="SourceGraphic" in2="effect1_dropShadow_225_4896" result="shape"/>
</filter>
<linearGradient id="paint0_linear_225_4896" x1="100" y1="0" x2="0" y2="5.38109e-07" gradientUnits="userSpaceOnUse">
<stop offset="0.109375" stop-color="#10181E"/>
<stop offset="1" stop-color="#D2EAFF"/>
</linearGradient>
</defs>
</svg>
