<svg width="416" height="120" viewBox="0 0 416 120" fill="none" xmlns="http://www.w3.org/2000/svg">
<g filter="url(#filter0_d_225_4749)">
<rect x="8" y="8" width="400" height="104" rx="14" fill="#10181E"/>
<path d="M38.78 54.24C37.0067 54.24 35.6267 53.64 34.64 52.44C33.6533 51.2267 33.16 49.4467 33.16 47.1C33.16 44.7533 33.6533 42.9533 34.64 41.7C35.6267 40.4333 37.0067 39.8 38.78 39.8C39.9533 39.8 40.9333 40.0667 41.72 40.6C42.52 41.1333 43.14 41.8867 43.58 42.86L42.22 43.68C41.94 42.96 41.5133 42.3867 40.94 41.96C40.3667 41.52 39.6467 41.3 38.78 41.3C38.18 41.3 37.64 41.4133 37.16 41.64C36.6933 41.8667 36.2933 42.1933 35.96 42.62C35.64 43.0333 35.3933 43.5333 35.22 44.12C35.0467 44.6933 34.96 45.34 34.96 46.06V48.14C34.96 49.58 35.2933 50.7067 35.96 51.52C36.6267 52.3333 37.5667 52.74 38.78 52.74C39.6733 52.74 40.42 52.5133 41.02 52.06C41.62 51.5933 42.06 50.98 42.34 50.22L43.68 51.06C43.24 52.0467 42.6067 52.8267 41.78 53.4C40.9533 53.96 39.9533 54.24 38.78 54.24ZM46.1219 43.68H47.6819V49.4L47.5219 51.88H47.6019L48.8819 49.68L53.0019 43.68H54.4819V54H52.9219V48.28L53.0819 45.8H53.0019L51.7219 48L47.6019 54H46.1219V43.68ZM61.7197 54.24C60.9997 54.24 60.353 54.1133 59.7797 53.86C59.2064 53.6067 58.7197 53.2467 58.3197 52.78C57.933 52.3133 57.633 51.7467 57.4197 51.08C57.2197 50.4133 57.1197 49.6667 57.1197 48.84C57.1197 48.0133 57.2197 47.2667 57.4197 46.6C57.633 45.9333 57.933 45.3667 58.3197 44.9C58.7197 44.4333 59.2064 44.0733 59.7797 43.82C60.353 43.5667 60.9997 43.44 61.7197 43.44C62.7464 43.44 63.5664 43.6667 64.1797 44.12C64.8064 44.56 65.273 45.14 65.5797 45.86L64.2397 46.54C64.053 46.0067 63.7464 45.5933 63.3197 45.3C62.893 45.0067 62.3597 44.86 61.7197 44.86C61.2397 44.86 60.8197 44.94 60.4597 45.1C60.0997 45.2467 59.7997 45.46 59.5597 45.74C59.3197 46.0067 59.1397 46.3333 59.0197 46.72C58.8997 47.0933 58.8397 47.5067 58.8397 47.96V49.72C58.8397 50.6267 59.0797 51.3733 59.5597 51.96C60.053 52.5333 60.773 52.82 61.7197 52.82C63.013 52.82 63.9464 52.22 64.5197 51.02L65.6797 51.8C65.3464 52.5467 64.8464 53.14 64.1797 53.58C63.5264 54.02 62.7064 54.24 61.7197 54.24ZM70.2364 45.08H66.7164V43.68H75.3564V45.08H71.8364V54H70.2364V45.08ZM81.0761 54.24C80.3694 54.24 79.7294 54.1133 79.1561 53.86C78.5961 53.6067 78.1094 53.2467 77.6961 52.78C77.2961 52.3 76.9828 51.7333 76.7561 51.08C76.5428 50.4133 76.4361 49.6667 76.4361 48.84C76.4361 48.0267 76.5428 47.2867 76.7561 46.62C76.9828 45.9533 77.2961 45.3867 77.6961 44.92C78.1094 44.44 78.5961 44.0733 79.1561 43.82C79.7294 43.5667 80.3694 43.44 81.0761 43.44C81.7694 43.44 82.3894 43.5667 82.9361 43.82C83.4828 44.0733 83.9494 44.4267 84.3361 44.88C84.7228 45.32 85.0161 45.8467 85.2161 46.46C85.4294 47.0733 85.5361 47.7467 85.5361 48.48V49.24H78.1161V49.72C78.1161 50.16 78.1828 50.5733 78.3161 50.96C78.4628 51.3333 78.6628 51.66 78.9161 51.94C79.1828 52.22 79.5028 52.44 79.8761 52.6C80.2628 52.76 80.6961 52.84 81.1761 52.84C81.8294 52.84 82.3961 52.6867 82.8761 52.38C83.3694 52.0733 83.7494 51.6333 84.0161 51.06L85.1561 51.88C84.8228 52.5867 84.3028 53.16 83.5961 53.6C82.8894 54.0267 82.0494 54.24 81.0761 54.24ZM81.0761 44.78C80.6361 44.78 80.2361 44.86 79.8761 45.02C79.5161 45.1667 79.2028 45.38 78.9361 45.66C78.6828 45.94 78.4828 46.2733 78.3361 46.66C78.1894 47.0333 78.1161 47.4467 78.1161 47.9V48.04H83.8161V47.82C83.8161 46.9 83.5628 46.1667 83.0561 45.62C82.5628 45.06 81.9028 44.78 81.0761 44.78ZM88.1727 43.68H90.2727L93.4127 49.04H93.4927L96.6127 43.68H98.6927V54H97.1327V45.6H97.0327L96.4527 46.72L93.4327 51.84L90.4127 46.72L89.8327 45.6H89.7327V54H88.1727V43.68ZM102.098 43.68H103.698V47.98H108.858V43.68H110.458V54H108.858V49.38H103.698V54H102.098V43.68ZM117.756 54.24C117.063 54.24 116.43 54.1133 115.856 53.86C115.283 53.6067 114.79 53.2467 114.376 52.78C113.976 52.3 113.663 51.7333 113.436 51.08C113.21 50.4133 113.096 49.6667 113.096 48.84C113.096 48.0267 113.21 47.2867 113.436 46.62C113.663 45.9533 113.976 45.3867 114.376 44.92C114.79 44.44 115.283 44.0733 115.856 43.82C116.43 43.5667 117.063 43.44 117.756 43.44C118.45 43.44 119.076 43.5667 119.636 43.82C120.21 44.0733 120.703 44.44 121.116 44.92C121.53 45.3867 121.85 45.9533 122.076 46.62C122.303 47.2867 122.416 48.0267 122.416 48.84C122.416 49.6667 122.303 50.4133 122.076 51.08C121.85 51.7333 121.53 52.3 121.116 52.78C120.703 53.2467 120.21 53.6067 119.636 53.86C119.076 54.1133 118.45 54.24 117.756 54.24ZM117.756 52.82C118.623 52.82 119.33 52.5533 119.876 52.02C120.423 51.4867 120.696 50.6733 120.696 49.58V48.1C120.696 47.0067 120.423 46.1933 119.876 45.66C119.33 45.1267 118.623 44.86 117.756 44.86C116.89 44.86 116.183 45.1267 115.636 45.66C115.09 46.1933 114.816 47.0067 114.816 48.1V49.58C114.816 50.6733 115.09 51.4867 115.636 52.02C116.183 52.5533 116.89 52.82 117.756 52.82ZM128.928 54.24C128.221 54.24 127.581 54.1133 127.008 53.86C126.448 53.6067 125.961 53.2467 125.548 52.78C125.148 52.3 124.834 51.7333 124.608 51.08C124.394 50.4133 124.288 49.6667 124.288 48.84C124.288 48.0267 124.394 47.2867 124.608 46.62C124.834 45.9533 125.148 45.3867 125.548 44.92C125.961 44.44 126.448 44.0733 127.008 43.82C127.581 43.5667 128.221 43.44 128.928 43.44C129.621 43.44 130.241 43.5667 130.788 43.82C131.334 44.0733 131.801 44.4267 132.188 44.88C132.574 45.32 132.868 45.8467 133.068 46.46C133.281 47.0733 133.388 47.7467 133.388 48.48V49.24H125.968V49.72C125.968 50.16 126.034 50.5733 126.168 50.96C126.314 51.3333 126.514 51.66 126.768 51.94C127.034 52.22 127.354 52.44 127.728 52.6C128.114 52.76 128.548 52.84 129.028 52.84C129.681 52.84 130.248 52.6867 130.728 52.38C131.221 52.0733 131.601 51.6333 131.868 51.06L133.008 51.88C132.674 52.5867 132.154 53.16 131.448 53.6C130.741 54.0267 129.901 54.24 128.928 54.24ZM128.928 44.78C128.488 44.78 128.088 44.86 127.728 45.02C127.368 45.1667 127.054 45.38 126.788 45.66C126.534 45.94 126.334 46.2733 126.188 46.66C126.041 47.0333 125.968 47.4467 125.968 47.9V48.04H131.668V47.82C131.668 46.9 131.414 46.1667 130.908 45.62C130.414 45.06 129.754 44.78 128.928 44.78ZM144.591 54.24C143.871 54.24 143.224 54.1133 142.651 53.86C142.077 53.6067 141.591 53.2467 141.191 52.78C140.804 52.3133 140.504 51.7467 140.291 51.08C140.091 50.4133 139.991 49.6667 139.991 48.84C139.991 48.0133 140.091 47.2667 140.291 46.6C140.504 45.9333 140.804 45.3667 141.191 44.9C141.591 44.4333 142.077 44.0733 142.651 43.82C143.224 43.5667 143.871 43.44 144.591 43.44C145.617 43.44 146.437 43.6667 147.051 44.12C147.677 44.56 148.144 45.14 148.451 45.86L147.111 46.54C146.924 46.0067 146.617 45.5933 146.191 45.3C145.764 45.0067 145.231 44.86 144.591 44.86C144.111 44.86 143.691 44.94 143.331 45.1C142.971 45.2467 142.671 45.46 142.431 45.74C142.191 46.0067 142.011 46.3333 141.891 46.72C141.771 47.0933 141.711 47.5067 141.711 47.96V49.72C141.711 50.6267 141.951 51.3733 142.431 51.96C142.924 52.5333 143.644 52.82 144.591 52.82C145.884 52.82 146.817 52.22 147.391 51.02L148.551 51.8C148.217 52.5467 147.717 53.14 147.051 53.58C146.397 54.02 145.577 54.24 144.591 54.24ZM154.592 54.24C153.899 54.24 153.266 54.1133 152.692 53.86C152.119 53.6067 151.626 53.2467 151.212 52.78C150.812 52.3 150.499 51.7333 150.272 51.08C150.046 50.4133 149.932 49.6667 149.932 48.84C149.932 48.0267 150.046 47.2867 150.272 46.62C150.499 45.9533 150.812 45.3867 151.212 44.92C151.626 44.44 152.119 44.0733 152.692 43.82C153.266 43.5667 153.899 43.44 154.592 43.44C155.286 43.44 155.912 43.5667 156.472 43.82C157.046 44.0733 157.539 44.44 157.952 44.92C158.366 45.3867 158.686 45.9533 158.912 46.62C159.139 47.2867 159.252 48.0267 159.252 48.84C159.252 49.6667 159.139 50.4133 158.912 51.08C158.686 51.7333 158.366 52.3 157.952 52.78C157.539 53.2467 157.046 53.6067 156.472 53.86C155.912 54.1133 155.286 54.24 154.592 54.24ZM154.592 52.82C155.459 52.82 156.166 52.5533 156.712 52.02C157.259 51.4867 157.532 50.6733 157.532 49.58V48.1C157.532 47.0067 157.259 46.1933 156.712 45.66C156.166 45.1267 155.459 44.86 154.592 44.86C153.726 44.86 153.019 45.1267 152.472 45.66C151.926 46.1933 151.652 47.0067 151.652 48.1V49.58C151.652 50.6733 151.926 51.4867 152.472 52.02C153.019 52.5533 153.726 52.82 154.592 52.82ZM165.784 54.24C165.09 54.24 164.457 54.1133 163.884 53.86C163.31 53.6067 162.817 53.2467 162.404 52.78C162.004 52.3 161.69 51.7333 161.464 51.08C161.237 50.4133 161.124 49.6667 161.124 48.84C161.124 48.0267 161.237 47.2867 161.464 46.62C161.69 45.9533 162.004 45.3867 162.404 44.92C162.817 44.44 163.31 44.0733 163.884 43.82C164.457 43.5667 165.09 43.44 165.784 43.44C166.477 43.44 167.104 43.5667 167.664 43.82C168.237 44.0733 168.73 44.44 169.144 44.92C169.557 45.3867 169.877 45.9533 170.104 46.62C170.33 47.2867 170.444 48.0267 170.444 48.84C170.444 49.6667 170.33 50.4133 170.104 51.08C169.877 51.7333 169.557 52.3 169.144 52.78C168.73 53.2467 168.237 53.6067 167.664 53.86C167.104 54.1133 166.477 54.24 165.784 54.24ZM165.784 52.82C166.65 52.82 167.357 52.5533 167.904 52.02C168.45 51.4867 168.724 50.6733 168.724 49.58V48.1C168.724 47.0067 168.45 46.1933 167.904 45.66C167.357 45.1267 166.65 44.86 165.784 44.86C164.917 44.86 164.21 45.1267 163.664 45.66C163.117 46.1933 162.844 47.0067 162.844 48.1V49.58C162.844 50.6733 163.117 51.4867 163.664 52.02C164.21 52.5533 164.917 52.82 165.784 52.82ZM177.153 54.24C176.433 54.24 175.786 54.12 175.213 53.88C174.639 53.64 174.153 53.2667 173.753 52.76C173.353 52.2533 173.039 51.6 172.813 50.8C172.599 49.9867 172.493 49.0067 172.493 47.86C172.493 46.38 172.586 45.1133 172.773 44.06C172.973 43.0067 173.286 42.14 173.713 41.46C174.139 40.78 174.679 40.2733 175.333 39.94C175.999 39.5933 176.806 39.38 177.753 39.3L180.993 39.04V40.66L177.553 40.94C176.966 40.9933 176.473 41.1067 176.073 41.28C175.673 41.4533 175.339 41.7267 175.073 42.1C174.819 42.46 174.619 42.94 174.473 43.54C174.339 44.14 174.239 44.8867 174.173 45.78H174.253C174.559 45.0733 174.953 44.5467 175.433 44.2C175.926 43.8533 176.573 43.68 177.373 43.68C178.026 43.68 178.626 43.8 179.173 44.04C179.719 44.28 180.186 44.6267 180.573 45.08C180.959 45.52 181.259 46.0733 181.473 46.74C181.699 47.3933 181.813 48.14 181.813 48.98C181.813 49.7667 181.699 50.48 181.473 51.12C181.246 51.76 180.926 52.3133 180.513 52.78C180.099 53.2467 179.606 53.6067 179.033 53.86C178.473 54.1133 177.846 54.24 177.153 54.24ZM177.233 52.82C177.646 52.82 178.026 52.7533 178.373 52.62C178.719 52.4867 179.019 52.2867 179.273 52.02C179.526 51.7533 179.726 51.4267 179.873 51.04C180.019 50.6533 180.093 50.2 180.093 49.68V48.42C180.093 47.3 179.819 46.4667 179.273 45.92C178.726 45.3733 177.993 45.1 177.073 45.1C176.113 45.1 175.393 45.34 174.913 45.82C174.446 46.2867 174.213 46.9 174.213 47.66V49.5C174.213 50.62 174.486 51.4533 175.033 52C175.579 52.5467 176.313 52.82 177.233 52.82ZM197.282 54H184.462V43.68H186.062V52.6H189.942V43.68H191.542V52.6H195.422V43.68H197.022V52.6H198.742V56.8H197.282V54ZM204.846 54.24C204.139 54.24 203.499 54.1133 202.926 53.86C202.366 53.6067 201.879 53.2467 201.466 52.78C201.066 52.3 200.752 51.7333 200.526 51.08C200.312 50.4133 200.206 49.6667 200.206 48.84C200.206 48.0267 200.312 47.2867 200.526 46.62C200.752 45.9533 201.066 45.3867 201.466 44.92C201.879 44.44 202.366 44.0733 202.926 43.82C203.499 43.5667 204.139 43.44 204.846 43.44C205.539 43.44 206.159 43.5667 206.706 43.82C207.252 44.0733 207.719 44.4267 208.106 44.88C208.492 45.32 208.786 45.8467 208.986 46.46C209.199 47.0733 209.306 47.7467 209.306 48.48V49.24H201.886V49.72C201.886 50.16 201.952 50.5733 202.086 50.96C202.232 51.3333 202.432 51.66 202.686 51.94C202.952 52.22 203.272 52.44 203.646 52.6C204.032 52.76 204.466 52.84 204.946 52.84C205.599 52.84 206.166 52.6867 206.646 52.38C207.139 52.0733 207.519 51.6333 207.786 51.06L208.926 51.88C208.592 52.5867 208.072 53.16 207.366 53.6C206.659 54.0267 205.819 54.24 204.846 54.24ZM204.846 44.78C204.406 44.78 204.006 44.86 203.646 45.02C203.286 45.1667 202.972 45.38 202.706 45.66C202.452 45.94 202.252 46.2733 202.106 46.66C201.959 47.0333 201.886 47.4467 201.886 47.9V48.04H207.586V47.82C207.586 46.9 207.332 46.1667 206.826 45.62C206.332 45.06 205.672 44.78 204.846 44.78ZM211.942 43.68H213.542V47.98H218.702V43.68H220.302V54H218.702V49.38H213.542V54H211.942V43.68ZM223.7 43.68H225.26V49.4L225.1 51.88H225.18L226.46 49.68L230.58 43.68H232.06V54H230.5V48.28L230.66 45.8H230.58L229.3 48L225.18 54H223.7V43.68ZM239.338 54.24C238.631 54.24 237.991 54.1133 237.418 53.86C236.858 53.6067 236.371 53.2467 235.958 52.78C235.558 52.3 235.244 51.7333 235.018 51.08C234.804 50.4133 234.698 49.6667 234.698 48.84C234.698 48.0267 234.804 47.2867 235.018 46.62C235.244 45.9533 235.558 45.3867 235.958 44.92C236.371 44.44 236.858 44.0733 237.418 43.82C237.991 43.5667 238.631 43.44 239.338 43.44C240.031 43.44 240.651 43.5667 241.198 43.82C241.744 44.0733 242.211 44.4267 242.598 44.88C242.984 45.32 243.278 45.8467 243.478 46.46C243.691 47.0733 243.798 47.7467 243.798 48.48V49.24H236.378V49.72C236.378 50.16 236.444 50.5733 236.578 50.96C236.724 51.3333 236.924 51.66 237.178 51.94C237.444 52.22 237.764 52.44 238.138 52.6C238.524 52.76 238.958 52.84 239.438 52.84C240.091 52.84 240.658 52.6867 241.138 52.38C241.631 52.0733 242.011 51.6333 242.278 51.06L243.418 51.88C243.084 52.5867 242.564 53.16 241.858 53.6C241.151 54.0267 240.311 54.24 239.338 54.24ZM239.338 44.78C238.898 44.78 238.498 44.86 238.138 45.02C237.778 45.1667 237.464 45.38 237.198 45.66C236.944 45.94 236.744 46.2733 236.598 46.66C236.451 47.0333 236.378 47.4467 236.378 47.9V48.04H242.078V47.82C242.078 46.9 241.824 46.1667 241.318 45.62C240.824 45.06 240.164 44.78 239.338 44.78Z" fill="white"/>
<path d="M38.56 69.52V82H36.88V69.52H32.44V68.04H43V69.52H38.56ZM47.7367 82.24C47.0434 82.24 46.4101 82.1133 45.8367 81.86C45.2634 81.6067 44.7701 81.2467 44.3567 80.78C43.9567 80.3 43.6434 79.7333 43.4167 79.08C43.1901 78.4133 43.0767 77.6667 43.0767 76.84C43.0767 76.0267 43.1901 75.2867 43.4167 74.62C43.6434 73.9533 43.9567 73.3867 44.3567 72.92C44.7701 72.44 45.2634 72.0733 45.8367 71.82C46.4101 71.5667 47.0434 71.44 47.7367 71.44C48.4301 71.44 49.0567 71.5667 49.6167 71.82C50.1901 72.0733 50.6834 72.44 51.0967 72.92C51.5101 73.3867 51.8301 73.9533 52.0567 74.62C52.2834 75.2867 52.3967 76.0267 52.3967 76.84C52.3967 77.6667 52.2834 78.4133 52.0567 79.08C51.8301 79.7333 51.5101 80.3 51.0967 80.78C50.6834 81.2467 50.1901 81.6067 49.6167 81.86C49.0567 82.1133 48.4301 82.24 47.7367 82.24ZM47.7367 80.82C48.6034 80.82 49.3101 80.5533 49.8567 80.02C50.4034 79.4867 50.6767 78.6733 50.6767 77.58V76.1C50.6767 75.0067 50.4034 74.1933 49.8567 73.66C49.3101 73.1267 48.6034 72.86 47.7367 72.86C46.8701 72.86 46.1634 73.1267 45.6167 73.66C45.0701 74.1933 44.7967 75.0067 44.7967 76.1V77.58C44.7967 78.6733 45.0701 79.4867 45.6167 80.02C46.1634 80.5533 46.8701 80.82 47.7367 80.82ZM53.41 80.6H54.77C54.9433 80.36 55.0967 80.0733 55.23 79.74C55.3633 79.4067 55.4767 79.0067 55.57 78.54C55.6633 78.0733 55.7367 77.52 55.79 76.88C55.8433 76.24 55.87 75.4867 55.87 74.62V71.68H62.85V82H61.25V73.08H57.39V74.66C57.39 75.66 57.35 76.5333 57.27 77.28C57.2033 78.0267 57.1033 78.6667 56.97 79.2C56.85 79.7333 56.7033 80.1733 56.53 80.52C56.3567 80.8533 56.17 81.12 55.97 81.32C55.7167 81.5733 55.4367 81.7533 55.13 81.86C54.8233 81.9533 54.4567 82 54.03 82H53.41V80.6ZM66.2586 71.68H67.8586V75.42H70.7986C71.8386 75.42 72.6653 75.7133 73.2786 76.3C73.8919 76.8867 74.1986 77.6933 74.1986 78.72C74.1986 79.76 73.8986 80.5667 73.2986 81.14C72.6986 81.7133 71.8719 82 70.8186 82H66.2586V71.68ZM70.5786 80.6C71.1786 80.6 71.6453 80.4867 71.9786 80.26C72.3119 80.0333 72.4786 79.6533 72.4786 79.12V78.28C72.4786 77.7467 72.3119 77.3733 71.9786 77.16C71.6453 76.9333 71.1786 76.82 70.5786 76.82H67.8586V80.6H70.5786ZM76.6492 71.68H78.2492V76H80.3092L82.3092 72.84C82.4559 72.6 82.5959 72.4067 82.7292 72.26C82.8626 72.1 82.9959 71.98 83.1292 71.9C83.2626 71.82 83.4026 71.7667 83.5492 71.74C83.6959 71.7 83.8626 71.68 84.0492 71.68H84.9892V73.08H83.7492L82.1292 75.64C82.0226 75.8133 81.9292 75.9533 81.8492 76.06C81.7692 76.1667 81.6892 76.26 81.6092 76.34C81.5292 76.4067 81.4426 76.4667 81.3492 76.52C81.2559 76.56 81.1426 76.6 81.0092 76.64V76.72C81.2892 76.76 81.5292 76.8533 81.7292 77C81.9426 77.1333 82.1626 77.4 82.3892 77.8L83.9692 80.6H85.1492V82H83.9892C83.6426 82 83.3226 81.9133 83.0292 81.74C82.7492 81.5533 82.4759 81.22 82.2092 80.74L80.3092 77.36H78.2492V82H76.6492V71.68ZM91.2328 82.24C90.5395 82.24 89.9061 82.1133 89.3328 81.86C88.7595 81.6067 88.2661 81.2467 87.8528 80.78C87.4528 80.3 87.1395 79.7333 86.9128 79.08C86.6861 78.4133 86.5728 77.6667 86.5728 76.84C86.5728 76.0267 86.6861 75.2867 86.9128 74.62C87.1395 73.9533 87.4528 73.3867 87.8528 72.92C88.2661 72.44 88.7595 72.0733 89.3328 71.82C89.9061 71.5667 90.5395 71.44 91.2328 71.44C91.9261 71.44 92.5528 71.5667 93.1128 71.82C93.6861 72.0733 94.1795 72.44 94.5928 72.92C95.0061 73.3867 95.3261 73.9533 95.5528 74.62C95.7795 75.2867 95.8928 76.0267 95.8928 76.84C95.8928 77.6667 95.7795 78.4133 95.5528 79.08C95.3261 79.7333 95.0061 80.3 94.5928 80.78C94.1795 81.2467 93.6861 81.6067 93.1128 81.86C92.5528 82.1133 91.9261 82.24 91.2328 82.24ZM91.2328 80.82C92.0995 80.82 92.8061 80.5533 93.3528 80.02C93.8995 79.4867 94.1728 78.6733 94.1728 77.58V76.1C94.1728 75.0067 93.8995 74.1933 93.3528 73.66C92.8061 73.1267 92.0995 72.86 91.2328 72.86C90.3661 72.86 89.6595 73.1267 89.1128 73.66C88.5661 74.1933 88.2928 75.0067 88.2928 76.1V77.58C88.2928 78.6733 88.5661 79.4867 89.1128 80.02C89.6595 80.5533 90.3661 80.82 91.2328 80.82ZM109.011 77.26H108.911C108.591 77.62 108.197 77.92 107.731 78.16C107.264 78.3867 106.651 78.5 105.891 78.5C104.837 78.5 104.017 78.24 103.431 77.72C102.844 77.1867 102.551 76.3867 102.551 75.32V71.68H104.151V75.18C104.151 76.4333 104.891 77.06 106.371 77.06C107.131 77.06 107.757 76.96 108.251 76.76C108.757 76.5467 109.011 76.2267 109.011 75.8V71.68H110.611V82H109.011V77.26ZM116.233 73.08H112.713V71.68H121.353V73.08H117.833V82H116.233V73.08ZM127.092 82.24C126.399 82.24 125.766 82.1133 125.192 81.86C124.619 81.6067 124.126 81.2467 123.712 80.78C123.312 80.3 122.999 79.7333 122.772 79.08C122.546 78.4133 122.432 77.6667 122.432 76.84C122.432 76.0267 122.546 75.2867 122.772 74.62C122.999 73.9533 123.312 73.3867 123.712 72.92C124.126 72.44 124.619 72.0733 125.192 71.82C125.766 71.5667 126.399 71.44 127.092 71.44C127.786 71.44 128.412 71.5667 128.972 71.82C129.546 72.0733 130.039 72.44 130.452 72.92C130.866 73.3867 131.186 73.9533 131.412 74.62C131.639 75.2867 131.752 76.0267 131.752 76.84C131.752 77.6667 131.639 78.4133 131.412 79.08C131.186 79.7333 130.866 80.3 130.452 80.78C130.039 81.2467 129.546 81.6067 128.972 81.86C128.412 82.1133 127.786 82.24 127.092 82.24ZM127.092 80.82C127.959 80.82 128.666 80.5533 129.212 80.02C129.759 79.4867 130.032 78.6733 130.032 77.58V76.1C130.032 75.0067 129.759 74.1933 129.212 73.66C128.666 73.1267 127.959 72.86 127.092 72.86C126.226 72.86 125.519 73.1267 124.972 73.66C124.426 74.1933 124.152 75.0067 124.152 76.1V77.58C124.152 78.6733 124.426 79.4867 124.972 80.02C125.519 80.5533 126.226 80.82 127.092 80.82Z" fill="#B5B5B5"/>
<path d="M361.032 63.679L356.719 61.9199M367.278 61.9199L362.965 63.679" stroke="white" stroke-width="2" stroke-miterlimit="10" stroke-linecap="round"/>
<path d="M362.88 62.8008H361.118L360.24 64.1194L361.118 66.3215L359.359 71.6013H364.639L362.88 66.3215L363.758 64.1194L362.88 62.8008Z" fill="white"/>
<path d="M366.312 60.5125C366.224 59.1052 366.224 58.0471 366.224 56.8171C366.839 56.4653 367.983 54.2632 368.249 52.5042C368.775 52.5042 369.567 51.9751 369.745 50.0388C369.831 48.9834 369.479 48.2798 369.038 48.1912C370.623 46.1689 370.36 38.1606 364.639 38.1606L363.759 36.3989C355.487 36.3989 352.495 42.7368 354.872 48.1052C354.606 48.2798 354.08 48.8948 354.168 49.9529C354.432 51.8892 355.224 52.4155 355.664 52.4155C355.839 54.2632 357.072 56.3767 357.687 56.7285C357.687 58.0471 357.775 59.0166 357.601 60.4238C356.191 64.7368 345.72 63.5042 345.279 71.6011H378.72C378.279 63.5042 367.894 64.7368 366.312 60.5125Z" stroke="white" stroke-width="2" stroke-miterlimit="10" stroke-linecap="round" stroke-linejoin="round"/>
<rect x="9" y="9" width="398" height="102" rx="13" stroke="#D2EAFF" stroke-width="2"/>
</g>
<defs>
<filter id="filter0_d_225_4749" x="0" y="0" width="416" height="120" filterUnits="userSpaceOnUse" color-interpolation-filters="sRGB">
<feFlood flood-opacity="0" result="BackgroundImageFix"/>
<feColorMatrix in="SourceAlpha" type="matrix" values="0 0 0 0 0 0 0 0 0 0 0 0 0 0 0 0 0 0 127 0" result="hardAlpha"/>
<feOffset/>
<feGaussianBlur stdDeviation="4"/>
<feColorMatrix type="matrix" values="0 0 0 0 0.823529 0 0 0 0 0.917647 0 0 0 0 1 0 0 0 0.4 0"/>
<feBlend mode="normal" in2="BackgroundImageFix" result="effect1_dropShadow_225_4749"/>
<feBlend mode="normal" in="SourceGraphic" in2="effect1_dropShadow_225_4749" result="shape"/>
</filter>
</defs>
</svg>
