<svg width="64" height="200" viewBox="0 0 64 200" fill="none" xmlns="http://www.w3.org/2000/svg">
<path d="M1.5 24C1.5 11.5736 11.5736 1.5 24 1.5H62.5V198.5H24C11.5736 198.5 1.5 188.426 1.5 176V24Z" fill="#10181E"/>
<g filter="url(#filter0_d_225_4793)">
<path fill-rule="evenodd" clip-rule="evenodd" d="M42.411 99.9999L28 85.589L30.7945 82.7944L48 99.9999L30.7945 117.205L28 114.411L42.411 99.9999Z" fill="#D2EAFF"/>
</g>
<path d="M1.5 24C1.5 11.5736 11.5736 1.5 24 1.5H62.5V198.5H24C11.5736 198.5 1.5 188.426 1.5 176V24Z" stroke="url(#paint0_linear_225_4793)" stroke-width="3"/>
<defs>
<filter id="filter0_d_225_4793" x="20" y="74.7944" width="36" height="50.4111" filterUnits="userSpaceOnUse" color-interpolation-filters="sRGB">
<feFlood flood-opacity="0" result="BackgroundImageFix"/>
<feColorMatrix in="SourceAlpha" type="matrix" values="0 0 0 0 0 0 0 0 0 0 0 0 0 0 0 0 0 0 127 0" result="hardAlpha"/>
<feOffset/>
<feGaussianBlur stdDeviation="4"/>
<feComposite in2="hardAlpha" operator="out"/>
<feColorMatrix type="matrix" values="0 0 0 0 0.823529 0 0 0 0 0.917647 0 0 0 0 1 0 0 0 1 0"/>
<feBlend mode="normal" in2="BackgroundImageFix" result="effect1_dropShadow_225_4793"/>
<feBlend mode="normal" in="SourceGraphic" in2="effect1_dropShadow_225_4793" result="shape"/>
</filter>
<linearGradient id="paint0_linear_225_4793" x1="64" y1="0" x2="0" y2="1.10204e-07" gradientUnits="userSpaceOnUse">
<stop offset="0.109375" stop-color="#10181E"/>
<stop offset="1" stop-color="#D2EAFF"/>
</linearGradient>
</defs>
</svg>
