<svg width="64" height="200" viewBox="0 0 64 200" fill="none" xmlns="http://www.w3.org/2000/svg">
<path d="M62.5 24C62.5 11.5736 52.4264 1.5 40 1.5H1.5V198.5H40C52.4264 198.5 62.5 188.426 62.5 176V24Z" fill="#10181E"/>
<g filter="url(#filter0_d_225_4794)">
<path fill-rule="evenodd" clip-rule="evenodd" d="M21.589 99.9999L36 85.589L33.2055 82.7944L16 99.9999L33.2055 117.205L36 114.411L21.589 99.9999Z" fill="#D2EAFF"/>
</g>
<path d="M62.5 24C62.5 11.5736 52.4264 1.5 40 1.5H1.5V198.5H40C52.4264 198.5 62.5 188.426 62.5 176V24Z" stroke="url(#paint0_linear_225_4794)" stroke-width="3"/>
<defs>
<filter id="filter0_d_225_4794" x="8" y="74.7944" width="36" height="50.4111" filterUnits="userSpaceOnUse" color-interpolation-filters="sRGB">
<feFlood flood-opacity="0" result="BackgroundImageFix"/>
<feColorMatrix in="SourceAlpha" type="matrix" values="0 0 0 0 0 0 0 0 0 0 0 0 0 0 0 0 0 0 127 0" result="hardAlpha"/>
<feOffset/>
<feGaussianBlur stdDeviation="4"/>
<feComposite in2="hardAlpha" operator="out"/>
<feColorMatrix type="matrix" values="0 0 0 0 0.823529 0 0 0 0 0.917647 0 0 0 0 1 0 0 0 1 0"/>
<feBlend mode="normal" in2="BackgroundImageFix" result="effect1_dropShadow_225_4794"/>
<feBlend mode="normal" in="SourceGraphic" in2="effect1_dropShadow_225_4794" result="shape"/>
</filter>
<linearGradient id="paint0_linear_225_4794" x1="0" y1="0" x2="64" y2="1.10204e-07" gradientUnits="userSpaceOnUse">
<stop offset="0.109375" stop-color="#10181E"/>
<stop offset="1" stop-color="#D2EAFF"/>
</linearGradient>
</defs>
</svg>
