<svg width="64" height="64" viewBox="0 0 64 64" fill="none" xmlns="http://www.w3.org/2000/svg">
<rect width="64" height="64" rx="4" fill="#293741"/>
<path fill-rule="evenodd" clip-rule="evenodd" d="M22.9318 49.1952L32.0006 44.4274L41.0694 49.1952C42.5548 49.9761 44.2909 48.7147 44.0072 47.0607L42.2753 36.9624L49.6121 29.8108C50.8138 28.6393 50.1507 26.5984 48.4899 26.3571L38.3507 24.8838L33.8163 15.6961C33.0736 14.1912 30.9276 14.1912 30.1849 15.6961L25.6505 24.8838L15.5112 26.3571C13.8505 26.5984 13.1873 28.6393 14.3891 29.8108L21.7259 36.9624L19.9939 47.0607C19.7102 48.7147 21.4463 49.9761 22.9318 49.1952ZM31.0584 40.3477L24.6787 43.7016L25.8971 36.5978C26.0098 35.941 25.792 35.2708 25.3148 34.8056L20.1535 29.7746L27.2862 28.7382C27.9457 28.6423 28.5158 28.2281 28.8107 27.6305L32.0006 21.1672L35.1904 27.6305C35.4853 28.2281 36.0554 28.6423 36.7149 28.7382L43.8476 29.7746L38.6864 34.8056C38.2091 35.2708 37.9914 35.941 38.104 36.5978L39.3224 43.7016L32.9428 40.3477C32.3529 40.0375 31.6482 40.0375 31.0584 40.3477Z" fill="#D2EAFF"/>
</svg>
